# xmcd CD database file
#
# Track frame offsets:
#	150
#	20528
#	38679
#	58475
#	76813
#	91109
#	107404
#	129521
#	142377
#	160374
#	175809
#	195483
#	216309
#	232401
#	249613
#
# Disc length: 3718 seconds
#
# Revision: 2
# Processed by: cddbd v1.5.2PL0 Copyright (c) Steve Scherf et al.
# Submitted via: CDex 1.51
#
DISCID=d60e840f
DTITLE=Henrik Gunde Trio - "The Erroll Garner Experience"
DYEAR=2002
DGENRE=Jazz
TTITLE0=Autumn Leaves
TTITLE1=The Way you look tonight
TTITLE2=The Shadows of your smile
TTITLE3=My Silent love
TTITLE4=You do something to me
TTITLE5=It ain't necessarily so
TTITLE6=Teach me tonight
TTITLE7=Like it is
TTITLE8=Lover come back to me
TTITLE9=Red top
TTITLE10=I'm Confession
TTITLE11=Gaslight
TTITLE12=The best things in life are free
TTITLE13=Diamonds are a girls best friends
TTITLE14=Misty
EXTD=YEAR: 2002
EXTT0=
EXTT1=
EXTT2=
EXTT3=
EXTT4=
EXTT5=
EXTT6=
EXTT7=
EXTT8=
EXTT9=
EXTT10=
EXTT11=
EXTT12=
EXTT13=
EXTT14=
PLAYORDER=
